<svg xmlns="http://www.w3.org/2000/svg" viewBox="0 0 800 560"><rect width="800" height="560" fill="#e7e3d4"/><circle cx="145" cy="150" r="130" fill="#d4b56c" opacity=".65"/><path d="M0 480c170-70 275-45 405-15 150 35 260-45 395-72v167H0Z" fill="#b8873b"/><circle cx="400" cy="218" r="92" fill="#9c6444"/><path d="M304 207c23-119 181-115 207 8-55-47-143-52-207-8Z" fill="#1f2524"/><path d="M270 540c15-168 72-232 130-232 62 0 119 64 130 232Z" fill="#31566a"/><path d="M346 252c32 25 78 25 110 0" fill="none" stroke="#6f4033" stroke-width="9" stroke-linecap="round"/><circle cx="365" cy="218" r="8" fill="#211e1d"/><circle cx="435" cy="218" r="8" fill="#211e1d"/><text x="40" y="70" fill="#31566a" font-family="sans-serif" font-size="28" font-weight="700">PD</text></svg>